<svg>
    <symbol id="i-biomass" viewBox="0 0 48 48">
        <path fill="#9CCC65" d="M32,15V7H16v8L6.2,40c-0.6,1.5,0.5,3,2.1,3h31.5c1.6,0,2.6-1.6,2.1-3L32,15z"/>
        <path fill="#8BC34A" d="M32,9H16c-1.1,0-2-0.9-2-2v0c0-1.1,0.9-2,2-2h16c1.1,0,2,0.9,2,2v0C34,8.1,33.1,9,32,9z"/>
        <path fill="#2E7D32" d="M28,30c0,4.4-4,8-4,8s-4-3.6-4-8s4-8,4-8S28,25.6,28,30z"/>
        <path fill="#388E3C" d="M31.1,32.6c-2,4-7.1,5.4-7.1,5.4s-2-5,0-8.9s7.1-5.4,7.1-5.4S33.1,28.6,31.1,32.6z"/>
        <path fill="#43A047" d="M16.9,32.6c2,4,7.1,5.4,7.1,5.4s2-5,0-8.9s-7.1-5.4-7.1-5.4S14.9,28.6,16.9,32.6z"/>
    </symbol>

    <symbol id="i-biotech" viewBox="0 0 48 48">
        <path fill="#AD1457" d="M36,4c0,9.3-6,13.2-12.8,17.8C16.1,26.5,8,31.8,8,44h4c0-10.1,6.5-14.4,13.4-18.9C32.2,20.6,40,15.4,40,4 H36z"/>
        <path fill="#AD1457" d="M38,41H11c-0.6,0-1-0.4-1-1s0.4-1,1-1h27c0.6,0,1,0.4,1,1S38.6,41,38,41z"/>
        <path fill="#AD1457" d="M36,37H12c-0.6,0-1-0.4-1-1s0.4-1,1-1h24c0.6,0,1,0.4,1,1S36.6,37,36,37z"/>
        <path fill="#AD1457" d="M34,33H14c-0.6,0-1-0.4-1-1s0.4-1,1-1h20c0.6,0,1,0.4,1,1S34.6,33,34,33z"/>
        <path fill="#AD1457" d="M29,29H19c-0.6,0-1-0.4-1-1s0.4-1,1-1h10c0.6,0,1,0.4,1,1S29.6,29,29,29z"/>
        <path fill="#E91E63" d="M37,9H10C9.4,9,9,8.6,9,8s0.4-1,1-1h27c0.6,0,1,0.4,1,1S37.6,9,37,9z"/>
        <path fill="#E91E63" d="M36,13H12c-0.6,0-1-0.4-1-1s0.4-1,1-1h24c0.6,0,1,0.4,1,1S36.6,13,36,13z"/>
        <path fill="#E91E63" d="M34,17H14c-0.6,0-1-0.4-1-1s0.4-1,1-1h20c0.6,0,1,0.4,1,1S34.6,17,34,17z"/>
        <path fill="#E91E63" d="M29,21H19c-0.6,0-1-0.4-1-1s0.4-1,1-1h10c0.6,0,1,0.4,1,1S29.6,21,29,21z"/>
        <path fill="#E91E63" d="M40,44h-4c0-10.1-6.5-14.4-13.4-18.9C15.8,20.6,8,15.4,8,4h4c0,9.3,6,13.2,12.8,17.8 C31.9,26.5,40,31.8,40,44z"/>
    </symbol>
    
    <symbol id="i-bookmark" viewBox="0 0 48 48">
        <path fill="#F44336" d="M37,43l-13-6l-13,6V9c0-2.2,1.8-4,4-4h18c2.2,0,4,1.8,4,4V43z"/>
    </symbol>
</svg>