<svg xmlns="http://www.w3.org/2000/svg" xmlns:xlink="http://www.w3.org/1999/xlink"><symbol fill-rule="evenodd" clip-rule="evenodd" viewBox="0 0 24 24" id="facebook-messenger" xmlns="http://www.w3.org/2000/svg"><path d="M12 0C5.374 0 0 5.372 0 12c0 6.627 5.374 12 12 12 6.627 0 12-5.373 12-12 0-6.628-5.373-12-12-12zm0 5.5c-3.866 0-7 2.902-7 6.481 0 2.04 1.018 3.86 2.609 5.048V19.5l2.383-1.308c.636.176 1.31.271 2.008.271 3.866 0 7-2.902 7-6.482C19 8.402 15.866 5.5 12 5.5zm.696 8.728l-1.783-1.901-3.478 1.901 3.826-4.061 1.826 1.901 3.435-1.901-3.826 4.061z"/></symbol><symbol fill-rule="evenodd" clip-rule="evenodd" viewBox="0 0 24 24" id="google-play" xmlns="http://www.w3.org/2000/svg"><path d="M12 0C5.374 0 0 5.372 0 12c0 6.627 5.374 12 12 12 6.627 0 12-5.373 12-12 0-6.628-5.373-12-12-12zM7.333 18.804l6.143-6.125 2.166 2.158-7.303 4.049a.912.912 0 0 1-.894-.006l-.112-.076zm5.524-6.743L7 17.9V6.221l5.857 5.84zm3.659-2.413l2.862 1.586c.281.156.455.449.455.766s-.174.61-.455.766l-2.94 1.63-2.342-2.335 2.42-2.413zM7.268 5.253l.177-.133a.912.912 0 0 1 .894-.006l7.381 4.092-2.244 2.237-6.208-6.19z"/></symbol><symbol fill-rule="evenodd" clip-rule="evenodd" viewBox="0 0 24 24" id="line" xmlns="http://www.w3.org/2000/svg"><path d="M12 0C5.374 0 0 5.372 0 12c0 6.627 5.374 12 12 12 6.627 0 12-5.373 12-12 0-6.628-5.373-12-12-12zm7 11.681C19 8.548 15.86 6 12 6s-7 2.548-7 5.681c0 2.808 2.49 5.159 5.854 5.604.228.049.538.15.617.345.071.177.046.454.022.633l-.099.599c-.031.177-.141.692.606.378.747-.315 4.031-2.374 5.5-4.064 1.014-1.113 1.5-2.242 1.5-3.495zm-9.606 1.808H7.433l-.095-.038-.001-.001-.003-.003-.038-.094v-3.05c0-.075.061-.136.137-.136h.491c.075 0 .136.061.136.136v2.422h1.334a.138.138 0 0 1 .136.137v.491a.136.136 0 0 1-.136.136zm7.275 0h-1.962l-.094-.038-.004-.004-.038-.094v-3.05l.038-.094.004-.004.094-.038h1.962c.075 0 .136.061.136.136v.491a.136.136 0 0 1-.136.137h-1.334v.515h1.334c.075 0 .136.061.136.137v.491a.136.136 0 0 1-.136.136h-1.334v.515h1.334a.138.138 0 0 1 .136.137v.491a.136.136 0 0 1-.136.136zm-6.091 0h-.491a.136.136 0 0 1-.137-.136v-3.05c0-.075.061-.136.137-.136h.491c.075 0 .136.061.136.136v3.05a.136.136 0 0 1-.136.136zm1.241 0h-.491a.137.137 0 0 1-.137-.136v-3.05c0-.075.062-.136.137-.136h.491l.012.001.013.001.007.002.013.004.005.001.012.006.011.006.007.005.014.011.009.01.01.013 1.398 1.888v-1.812c0-.075.061-.136.136-.136h.491c.076 0 .137.061.137.136v3.05a.136.136 0 0 1-.137.136h-.491l-.035-.004-.002-.001-.013-.004-.007-.003-.01-.005-.008-.006-.002-.001-.034-.033-1.4-1.89v1.811a.136.136 0 0 1-.136.136z"/></symbol></svg>